<?xml version="1.0" encoding="UTF-8" standalone="no"?>
<!DOCTYPE svg PUBLIC "-//W3C//DTD SVG 1.1//EN"
 "http://www.w3.org/Graphics/SVG/1.1/DTD/svg11.dtd">
<!-- Generated by graphviz version 5.0.0 (20220707.1540)
 -->
<!-- Title: dependencies Pages: 1 -->
<svg width="579pt" height="247pt"
 viewBox="0.00 0.00 579.00 246.80" xmlns="http://www.w3.org/2000/svg" xmlns:xlink="http://www.w3.org/1999/xlink">
<g id="graph0" class="graph" transform="scale(1 1) rotate(0) translate(4 242.8)">
<title>dependencies</title>
<polygon fill="white" stroke="transparent" points="-4,4 -4,-242.8 575,-242.8 575,4 -4,4"/>
<text text-anchor="middle" x="285.5" y="-8.2" font-family="sans-serif" font-size="14.00">dependencies</text>
<g id="clust1" class="cluster">
<title>cluster_AppModule</title>
<polygon fill="none" stroke="black" stroke-dasharray="1,5" points="8,-32.8 8,-230.8 563,-230.8 563,-32.8 8,-32.8"/>
</g>
<g id="clust7" class="cluster">
<title>cluster_AppModule_bootstrap</title>
<polygon fill="none" stroke="black" points="235,-170.8 235,-222.8 359,-222.8 359,-170.8 235,-170.8"/>
</g>
<g id="clust5" class="cluster">
<title>cluster_AppModule_imports</title>
<polygon fill="none" stroke="black" points="306,-40.8 306,-92.8 555,-92.8 555,-40.8 306,-40.8"/>
</g>
<g id="clust2" class="cluster">
<title>cluster_AppModule_declarations</title>
<polygon fill="none" stroke="black" points="16,-40.8 16,-92.8 298,-92.8 298,-40.8 16,-40.8"/>
</g>
<!-- AppComponent -->
<g id="node1" class="node">
<title>AppComponent</title>
<polygon fill="#ffffb3" stroke="black" points="289.94,-84.8 184.06,-84.8 184.06,-48.8 289.94,-48.8 289.94,-84.8"/>
<text text-anchor="middle" x="237" y="-62.6" font-family="Times,serif" font-size="14.00">AppComponent</text>
</g>
<!-- AppModule -->
<g id="node3" class="node">
<title>AppModule</title>
<polygon fill="#8dd3c7" stroke="black" points="338.66,-149.8 335.66,-153.8 314.66,-153.8 311.66,-149.8 255.34,-149.8 255.34,-113.8 338.66,-113.8 338.66,-149.8"/>
<text text-anchor="middle" x="297" y="-127.6" font-family="Times,serif" font-size="14.00">AppModule</text>
</g>
<!-- AppComponent&#45;&gt;AppModule -->
<g id="edge1" class="edge">
<title>AppComponent&#45;&gt;AppModule</title>
<path fill="none" stroke="black" d="M272.44,-84.91C272.44,-84.91 272.44,-103.79 272.44,-103.79"/>
<polygon fill="black" stroke="black" points="268.94,-103.79 272.44,-113.79 275.94,-103.79 268.94,-103.79"/>
</g>
<!-- FooterCrmComponent -->
<g id="node2" class="node">
<title>FooterCrmComponent</title>
<polygon fill="#ffffb3" stroke="black" points="166.27,-84.8 23.73,-84.8 23.73,-48.8 166.27,-48.8 166.27,-84.8"/>
<text text-anchor="middle" x="95" y="-62.6" font-family="Times,serif" font-size="14.00">FooterCrmComponent</text>
</g>
<!-- FooterCrmComponent&#45;&gt;AppModule -->
<g id="edge2" class="edge">
<title>FooterCrmComponent&#45;&gt;AppModule</title>
<path fill="none" stroke="black" d="M95,-84.91C95,-104.14 95,-131.8 95,-131.8 95,-131.8 245.15,-131.8 245.15,-131.8"/>
<polygon fill="black" stroke="black" points="245.15,-135.3 255.15,-131.8 245.15,-128.3 245.15,-135.3"/>
</g>
<!-- AppComponent  -->
<g id="node6" class="node">
<title>AppComponent </title>
<polygon fill="#80b1d3" stroke="black" points="351.44,-214.8 242.56,-214.8 242.56,-178.8 351.44,-178.8 351.44,-214.8"/>
<text text-anchor="middle" x="297" y="-192.6" font-family="Times,serif" font-size="14.00">AppComponent </text>
</g>
<!-- AppModule&#45;&gt;AppComponent  -->
<g id="edge5" class="edge">
<title>AppModule&#45;&gt;AppComponent </title>
<path fill="none" stroke="black" stroke-dasharray="1,5" d="M297,-149.91C297,-149.91 297,-168.79 297,-168.79"/>
<polygon fill="black" stroke="black" points="293.5,-168.79 297,-178.79 300.5,-168.79 293.5,-168.79"/>
</g>
<!-- AppRoutingModule -->
<g id="node4" class="node">
<title>AppRoutingModule</title>
<polygon fill="#8dd3c7" stroke="black" points="547.28,-84.8 544.28,-88.8 523.28,-88.8 520.28,-84.8 418.72,-84.8 418.72,-48.8 547.28,-48.8 547.28,-84.8"/>
<text text-anchor="middle" x="483" y="-62.6" font-family="Times,serif" font-size="14.00">AppRoutingModule</text>
</g>
<!-- AppRoutingModule&#45;&gt;AppModule -->
<g id="edge3" class="edge">
<title>AppRoutingModule&#45;&gt;AppModule</title>
<path fill="none" stroke="black" d="M483,-84.91C483,-104.14 483,-131.8 483,-131.8 483,-131.8 348.74,-131.8 348.74,-131.8"/>
<polygon fill="black" stroke="black" points="348.74,-128.3 338.74,-131.8 348.74,-135.3 348.74,-128.3"/>
</g>
<!-- CoreModule -->
<g id="node5" class="node">
<title>CoreModule</title>
<polygon fill="#8dd3c7" stroke="black" points="400.27,-84.8 397.27,-88.8 376.27,-88.8 373.27,-84.8 313.73,-84.8 313.73,-48.8 400.27,-48.8 400.27,-84.8"/>
<text text-anchor="middle" x="357" y="-62.6" font-family="Times,serif" font-size="14.00">CoreModule</text>
</g>
<!-- CoreModule&#45;&gt;AppModule -->
<g id="edge4" class="edge">
<title>CoreModule&#45;&gt;AppModule</title>
<path fill="none" stroke="black" d="M326.22,-84.91C326.22,-84.91 326.22,-103.79 326.22,-103.79"/>
<polygon fill="black" stroke="black" points="322.72,-103.79 326.22,-113.79 329.72,-103.79 322.72,-103.79"/>
</g>
</g>
</svg>
